<svg xmlns="http://www.w3.org/2000/svg" xmlns:xlink="http://www.w3.org/1999/xlink" width="32" height="32" fill="none" viewBox="0 0 32 32"><filter id="a" width="21.607" height="25.193" x="8.415" y="3.404" color-interpolation-filters="sRGB" filterUnits="userSpaceOnUse"><feFlood floodOpacity="0" result="BackgroundImageFix"/><feBlend in="SourceGraphic" in2="BackgroundImageFix" mode="normal" result="shape"/><feColorMatrix in="SourceAlpha" result="hardAlpha" type="matrix" values="0 0 0 0 0 0 0 0 0 0 0 0 0 0 0 0 0 0 127 0"/><feOffset dx=".25" dy="-.25"/><feGaussianBlur stdDeviation=".25"/><feComposite in2="hardAlpha" k2="-1" k3="1" operator="arithmetic"/><feColorMatrix type="matrix" values="0 0 0 0 0.937255 0 0 0 0 0.482353 0 0 0 0 0.329412 0 0 0 1 0"/><feBlend in2="shape" mode="normal" result="effect1_innerShadow_18_454"/><feColorMatrix in="SourceAlpha" result="hardAlpha" type="matrix" values="0 0 0 0 0 0 0 0 0 0 0 0 0 0 0 0 0 0 127 0"/><feOffset dx=".25" dy=".25"/><feGaussianBlur stdDeviation=".5"/><feComposite in2="hardAlpha" k2="-1" k3="1" operator="arithmetic"/><feColorMatrix type="matrix" values="0 0 0 0 0.737255 0 0 0 0 0.615686 0 0 0 0 0.415686 0 0 0 1 0"/><feBlend in2="effect1_innerShadow_18_454" mode="normal" result="effect2_innerShadow_18_454"/><feColorMatrix in="SourceAlpha" result="hardAlpha" type="matrix" values="0 0 0 0 0 0 0 0 0 0 0 0 0 0 0 0 0 0 127 0"/><feOffset dx="-.4" dy=".25"/><feGaussianBlur stdDeviation=".2"/><feComposite in2="hardAlpha" k2="-1" k3="1" operator="arithmetic"/><feColorMatrix type="matrix" values="0 0 0 0 1 0 0 0 0 0.901961 0 0 0 0 0.458824 0 0 0 1 0"/><feBlend in2="effect2_innerShadow_18_454" mode="normal" result="effect3_innerShadow_18_454"/></filter><filter id="b" width="6.945" height="8.048" x="5.413" y="3.418" color-interpolation-filters="sRGB" filterUnits="userSpaceOnUse"><feFlood floodOpacity="0" result="BackgroundImageFix"/><feBlend in="SourceGraphic" in2="BackgroundImageFix" mode="normal" result="shape"/><feColorMatrix in="SourceAlpha" result="hardAlpha" type="matrix" values="0 0 0 0 0 0 0 0 0 0 0 0 0 0 0 0 0 0 127 0"/><feOffset dx=".1" dy=".1"/><feGaussianBlur stdDeviation=".1"/><feComposite in2="hardAlpha" k2="-1" k3="1" operator="arithmetic"/><feColorMatrix type="matrix" values="0 0 0 0 0.803922 0 0 0 0 0.6 0 0 0 0 0.262745 0 0 0 1 0"/><feBlend in2="shape" mode="normal" result="effect1_innerShadow_18_454"/><feColorMatrix in="SourceAlpha" result="hardAlpha" type="matrix" values="0 0 0 0 0 0 0 0 0 0 0 0 0 0 0 0 0 0 127 0"/><feOffset dx="-.1" dy=".1"/><feGaussianBlur stdDeviation=".1"/><feComposite in2="hardAlpha" k2="-1" k3="1" operator="arithmetic"/><feColorMatrix type="matrix" values="0 0 0 0 1 0 0 0 0 0.882353 0 0 0 0 0.423529 0 0 0 1 0"/><feBlend in2="effect1_innerShadow_18_454" mode="normal" result="effect2_innerShadow_18_454"/></filter><filter id="c" width="9.556" height="11.233" x="2.081" y="16.571" color-interpolation-filters="sRGB" filterUnits="userSpaceOnUse"><feFlood floodOpacity="0" result="BackgroundImageFix"/><feBlend in="SourceGraphic" in2="BackgroundImageFix" mode="normal" result="shape"/><feColorMatrix in="SourceAlpha" result="hardAlpha" type="matrix" values="0 0 0 0 0 0 0 0 0 0 0 0 0 0 0 0 0 0 127 0"/><feOffset dx=".15" dy="-.15"/><feGaussianBlur stdDeviation=".15"/><feComposite in2="hardAlpha" k2="-1" k3="1" operator="arithmetic"/><feColorMatrix type="matrix" values="0 0 0 0 1 0 0 0 0 0.458824 0 0 0 0 0.462745 0 0 0 1 0"/><feBlend in2="shape" mode="normal" result="effect1_innerShadow_18_454"/></filter><linearGradient id="d" x1="26.129" x2="15.052" y1="11.271" y2="22.931" gradientUnits="userSpaceOnUse"><stop offset="0" stopColor="#ffcf5a"/><stop offset="1" stopColor="#fea254"/></linearGradient><linearGradient id="e" x1="14.754" x2="20.792" y1="29.29" y2="16.554" gradientUnits="userSpaceOnUse"><stop offset="0" stopColor="#ff886d"/><stop offset="1" stopColor="#ff886d" stopOpacity="0"/></linearGradient><linearGradient id="f" x1="11.086" x2="7.521" y1="5.869" y2="9.622" gradientUnits="userSpaceOnUse"><stop offset="0" stopColor="#ffda72"/><stop offset="1" stopColor="#f7a967"/></linearGradient><linearGradient id="g" x1="8.886" x2="8.886" y1="11.98" y2="7.855" gradientUnits="userSpaceOnUse"><stop offset="0" stopColor="#fda071"/><stop offset="1" stopColor="#fda071" stopOpacity="0"/></linearGradient><radialGradient id="h" cx="0" cy="0" r="1" gradientTransform="matrix(-4.28019674 5.63466137 -5.48709749 -4.16810439 10.0135 18.5671)" gradientUnits="userSpaceOnUse"><stop offset=".365" stopColor="#ffbc64"/><stop offset="1" stopColor="#ff8f6b"/></radialGradient><g filter="url(#a)"><path fill="url(#d)" d="m15.8212 11.106c-.1704.6618-.7491 1.1555-1.4331 1.4975-1.9389.6709-3.4705 1.3162-4.73781 1.9427-1.12191.5546-1.11108 2.3073.01447 2.8545 1.31514.6393 2.96624 1.2525 4.80004 1.9794.4931.1955 1.1899.7477 1.3633 1.4265.5345 2.0917 1.2617 4.306 2.0625 6.3502.6216 1.5868 2.1584 1.5856 2.7831 0 .8109-2.0584 1.4269-4.2818 2.1222-6.3972.1664-.6532.6591-1.1697 1.2944-1.3947 1.717-.6083 3.3721-1.2947 4.7212-1.8889 1.2599-.5549 1.2859-2.3565.0418-2.9459-1.3286-.6294-2.9812-1.3582-4.7713-2.0087-.63-.2289-1.1147-.7121-1.3387-1.3979-.7545-2.31095-1.2326-4.27021-2.0342-6.30488-.6247-1.58565-2.2646-1.53685-2.8893.0488-.7986 2.02716-1.3561 4.04493-1.9986 6.23858z"/></g><path fill="url(#e)" d="m15.8212 11.106c-.1704.6618-.7491 1.1555-1.4331 1.4975-1.9389.6709-3.4705 1.3162-4.73781 1.9427-1.12191.5546-1.11108 2.3073.01447 2.8545 1.31514.6393 2.96624 1.2525 4.80004 1.9794.4931.1955 1.1899.7477 1.3633 1.4265.5345 2.0917 1.2617 4.306 2.0625 6.3502.6216 1.5868 2.1584 1.5856 2.7831 0 .8109-2.0584 1.4269-4.2818 2.1222-6.3972.1664-.6532.6591-1.1697 1.2944-1.3947 1.717-.6083 3.3721-1.2947 4.7212-1.8889 1.2599-.5549 1.2859-2.3565.0418-2.9459-1.3286-.6294-2.9812-1.3582-4.7713-2.0087-.63-.2289-1.1147-.7121-1.3387-1.3979-.7545-2.31095-1.2326-4.27021-2.0342-6.30488-.6247-1.58565-2.2646-1.53685-2.8893.0488-.7986 2.02716-1.3561 4.04493-1.9986 6.23858z"/><g filter="url(#b)"><path fill="url(#f)" d="m7.76802 5.8163c-.05485.21301-.24108.37191-.46123.48198-.62407.21592-1.11702.42364-1.52491.62528-.3611.1785-.35761.74261.00466.91872.42327.20578.95471.40314 1.54493.63711.15869.06291.38296.24064.43879.45911.17203.67323.40609 1.3859.66382 2.0439.20008.5107.69471.5103.89576 0 .26099-.6625.45927-1.37816.68306-2.05903.0536-.21022.2121-.37645.4166-.44889.5526-.19576 1.0853-.41669 1.5196-.60795.4055-.1786.4138-.75845.0134-.94815-.4276-.20258-.9595-.43717-1.5357-.64652-.2028-.07369-.3588-.22919-.43083-.44992-.24286-.7438-.39674-1.3744-.65474-2.02928-.20106-.51035-.72886-.49464-.92992.01571-.25704.65246-.43649 1.30189-.64329 2.00793z"/></g><path fill="url(#g)" d="m7.76802 5.8163c-.05485.21301-.24108.37191-.46123.48198-.62407.21592-1.11702.42364-1.52491.62528-.3611.1785-.35761.74261.00466.91872.42327.20578.95471.40314 1.54493.63711.15869.06291.38296.24064.43879.45911.17203.67323.40609 1.3859.66382 2.0439.20008.5107.69471.5103.89576 0 .26099-.6625.45927-1.37816.68306-2.05903.0536-.21022.2121-.37645.4166-.44889.5526-.19576 1.0853-.41669 1.5196-.60795.4055-.1786.4138-.75845.0134-.94815-.4276-.20258-.9595-.43717-1.5357-.64652-.2028-.07369-.3588-.22919-.43083-.44992-.24286-.7438-.39674-1.3744-.65474-2.02928-.20106-.51035-.72886-.49464-.92992.01571-.25704.65246-.43649 1.30189-.64329 2.00793z"/><g filter="url(#c)"><path fill="url(#h)" d="m5.22603 20.0657c-.07649.297-.33618.5186-.64316.6721-.87025.3011-1.55764.5907-2.12642.8719-.50353.2489-.49867 1.0355.00649 1.2811.59024.287 1.3313.5622 2.15433.8884.22129.0877.53402.3356.61187.6402.2399.9388.56629 1.9327.92568 2.8501.279.7122.96874.7117 1.2491 0 .36393-.9238.64042-1.9217.95248-2.8712.07468-.2931.29578-.5249.58092-.6259.77062-.273 1.51348-.5811 2.11898-.8478.5654-.249.5771-1.0576.0187-1.3221-.5962-.2825-1.33795-.6096-2.14137-.9016-.28279-.1027-.50033-.3196-.60083-.6274-.33866-1.0372-.55324-1.9165-.91301-2.8297-.28037-.7117-1.01636-.6898-1.29673.0219-.35843.9098-.60867 1.8154-.89703 2.8z"/></g></svg>