<svg width="205" height="196" viewBox="0 0 205 196" fill="none" xmlns="http://www.w3.org/2000/svg">
    <path
        d="M196.234 49.8033C194.771 42.83 195.161 43.3771 193.553 31.5956L171.57 35.8798C188.922 24.3638 196.953 16.9808 204.276 0C205.948 23.1339 204.648 34.1854 196.234 49.8033Z"
        fill="#FFD051" />
    <path
        d="M162.015 114.601C162.015 159.556 125.528 196 80.5195 196C56.861 196 35.557 185.931 20.6692 169.849C21.136 169.82 21.6072 169.79 22.0827 169.758C85.4636 165.51 122.653 140.807 157.436 87.6309C165.005 75.953 172.537 62.8836 180.232 48.2986C170.048 57.39 160.192 65.6044 150.538 72.9256L150.543 72.9327C99.9553 115.602 54.3843 124.657 0.1002 101.747C0.0669411 101.819 0.0335392 101.891 0 101.963C6.07938 63.0094 39.8144 33.2022 80.5195 33.2022C109.505 33.2022 134.956 48.3162 149.404 71.0843C160.297 62.8106 171.494 53.3799 183.122 42.8075C184.658 41.4107 186.202 39.994 187.753 38.5574C186.802 40.4279 185.854 42.276 184.909 44.1017C175.961 61.3791 167.143 76.9316 158.346 90.3763C160.73 98.0284 162.015 106.165 162.015 114.601Z"
        fill="#64DAFF" />
</svg>